<?xml version="1.0" encoding="UTF-8" standalone="no"?>
<!DOCTYPE svg PUBLIC "-//W3C//DTD SVG 1.1//EN" "http://www.w3.org/Graphics/SVG/1.1/DTD/svg11.dtd">
<svg width="100%" height="100%" viewBox="0 0 1080 1080" version="1.1" xmlns="http://www.w3.org/2000/svg" xmlns:xlink="http://www.w3.org/1999/xlink" xml:space="preserve" xmlns:serif="http://www.serif.com/" style="fill-rule:evenodd;clip-rule:evenodd;stroke-linejoin:round;stroke-miterlimit:2;">
    <g transform="matrix(1.97773,0,0,1.97773,-64.5771,-291.388)">
        <path d="M186.455,622.627C174.86,622.627 165.977,619.354 159.806,612.809C153.635,606.263 150.549,597.193 150.549,585.598L150.549,254.59C150.549,242.621 153.635,233.551 159.806,227.38C165.977,221.208 174.86,218.123 186.455,218.123C198.05,218.123 206.933,221.208 213.104,227.38C219.275,233.551 222.361,242.621 222.361,254.59L222.361,397.653L223.483,397.653L322.055,298.519C328.04,292.535 334.024,288.047 340.008,285.055C345.993,282.062 352.725,280.566 360.206,280.566C371.052,280.566 378.813,283.372 383.488,288.982C388.164,294.592 390.034,301.138 389.099,308.618C388.164,316.098 384.517,323.018 378.159,329.376L276.781,429.071L277.342,396.531L448.457,570.451C456.311,577.931 460.426,585.785 460.8,594.014C461.174,602.242 458.649,609.068 453.226,614.492C447.802,619.915 439.854,622.627 429.382,622.627C420.405,622.627 413.205,620.756 407.782,617.016C402.359,613.276 396.094,607.853 388.988,600.746L223.483,435.242L222.361,435.242L222.361,585.598C222.361,597.193 219.369,606.263 213.385,612.809C207.4,619.354 198.424,622.627 186.455,622.627Z" style="fill:rgb(55,119,153);fill-rule:nonzero;"/>
    </g>
    <g transform="matrix(0.969022,0,0,0.969022,269.351,70.8603)">
        <circle cx="506.828" cy="143.66" r="72.31" style="fill:rgb(36,168,157);"/>
    </g>
</svg>
